<?xml version="1.0" standalone="no"?>
<!DOCTYPE svg PUBLIC "-//W3C//DTD SVG 20010904//EN"
 "http://www.w3.org/TR/2001/REC-SVG-20010904/DTD/svg10.dtd">
<svg version="1.0" xmlns="http://www.w3.org/2000/svg"
 width="300.000000pt" height="141.000000pt" viewBox="0 0 300.000000 141.000000"
 preserveAspectRatio="xMidYMid meet">
<metadata>
Created by potrace 1.10, written by Peter Selinger 2001-2011
</metadata>
<g transform="translate(0.000000,141.000000) scale(0.100000,-0.100000)"
fill="#000000" stroke="none">
<path d="M1478 1124 c-36 -19 -58 -63 -58 -113 0 -75 77 -131 153 -110 39 10
85 55 71 68 -7 7 -91 31 -107 31 -2 0 -17 -18 -31 -41 -36 -54 -46 -42 -12 15
14 25 35 72 45 105 l19 61 -27 0 c-14 -1 -38 -7 -53 -16z m27 -66 c-3 -18 -10
-37 -15 -43 -4 -5 -9 -13 -9 -17 -1 -5 -3 -8 -6 -8 -3 0 -9 0 -14 0 -17 0 -18
44 -2 73 8 15 23 27 33 27 15 0 17 -6 13 -32z m72 -109 c-1 -21 -37 -27 -37
-6 0 8 -4 7 -10 -3 -11 -17 -13 -10 -4 13 8 22 53 19 51 -4z"/>
<path d="M1572 1088 c-6 -29 -9 -55 -4 -58 11 -10 93 -32 99 -26 17 17 -49
136 -76 136 -3 0 -12 -23 -19 -52z"/>
<path d="M1324 818 l-43 -40 36 -49 c28 -40 40 -49 57 -45 12 2 58 8 102 12
l82 6 78 79 c65 66 75 79 56 79 -13 0 -46 -17 -75 -38 -76 -57 -93 -64 -132
-56 -51 9 -43 29 18 40 41 7 53 13 55 29 2 19 -4 20 -94 22 l-96 1 -44 -40z
m114 -13 c-9 -21 -8 -28 7 -45 10 -11 25 -20 34 -21 32 -1 -34 -20 -81 -23
-40 -3 -51 0 -63 17 -20 29 -20 32 18 66 22 21 42 31 64 31 31 0 32 -1 21 -25z"/>
<path d="M1238 763 c-14 -17 -12 -23 32 -80 45 -58 49 -61 64 -44 15 16 12 22
-30 79 -25 34 -47 62 -48 62 -2 0 -10 -8 -18 -17z"/>
<path d="M747 453 c-4 -3 -7 -40 -7 -80 0 -55 3 -74 13 -70 6 2 12 15 12 30 0
42 13 42 49 1 19 -21 38 -36 42 -31 4 4 -7 22 -24 40 -18 18 -32 37 -32 41 0
4 11 17 25 28 14 11 25 27 25 36 0 11 -11 5 -38 -21 -21 -20 -42 -37 -46 -37
-5 0 -5 16 -2 35 6 32 -1 44 -17 28z"/>
<path d="M1230 380 c0 -47 4 -80 10 -80 6 0 10 20 10 44 0 32 5 46 17 50 25
10 38 -10 34 -54 -1 -24 2 -40 8 -40 6 0 11 21 11 49 0 57 -17 79 -49 61 -19
-10 -21 -8 -21 20 0 16 -4 30 -10 30 -6 0 -10 -33 -10 -80z"/>
<path d="M1410 380 c0 -47 4 -80 10 -80 6 0 10 11 10 24 0 37 17 40 35 6 8
-16 20 -30 25 -30 15 0 12 9 -12 42 -21 30 -21 31 -3 44 10 8 15 17 12 21 -4
3 -18 -4 -32 -17 l-25 -23 0 46 c0 26 -4 47 -10 47 -6 0 -10 -33 -10 -80z"/>
<path d="M1530 451 c0 -5 -3 -16 -6 -25 -10 -26 12 -18 24 9 10 21 9 25 -3 25
-8 0 -15 -4 -15 -9z"/>
<path d="M1860 378 c0 -84 16 -100 22 -23 2 32 7 40 23 40 17 0 20 -8 23 -47
4 -63 22 -62 22 2 0 52 -21 77 -54 64 -12 -5 -16 0 -16 20 0 14 -4 26 -10 26
-6 0 -10 -34 -10 -82z"/>
<path d="M902 404 c-15 -10 -22 -25 -22 -48 0 -37 15 -56 45 -56 30 0 44 13
51 47 5 24 1 36 -15 52 -25 25 -30 26 -59 5z m48 -18 c6 -8 10 -25 8 -38 -4
-33 -52 -33 -56 0 -7 47 21 69 48 38z"/>
<path d="M1008 414 c-13 -12 -9 -91 5 -102 7 -6 27 -10 45 -10 l32 1 0 61 c0
67 -17 68 -22 1 -2 -32 -7 -41 -25 -43 -20 -3 -22 2 -25 48 -2 29 -6 48 -10
44z"/>
<path d="M1138 409 c-30 -17 -22 -47 14 -57 17 -4 33 -13 36 -20 5 -16 -40
-16 -56 0 -9 9 -12 8 -12 -4 0 -28 59 -39 79 -14 17 20 3 44 -30 51 -16 4 -29
13 -29 21 0 17 37 19 43 2 2 -7 8 -9 13 -5 5 5 1 15 -10 23 -23 16 -25 17 -48
3z"/>
<path d="M1598 409 c-30 -17 -22 -49 12 -56 17 -3 33 -10 36 -14 9 -15 -27
-23 -46 -11 -22 13 -34 4 -19 -15 15 -17 63 -17 78 1 17 20 3 44 -30 51 -16 4
-29 13 -29 21 0 17 22 18 38 2 6 -6 15 -8 19 -4 5 4 -1 14 -11 22 -23 16 -25
17 -48 3z"/>
<path d="M1761 409 c-32 -12 -23 -42 17 -54 17 -5 32 -15 32 -22 0 -17 -47
-17 -53 0 -2 6 -8 9 -12 5 -11 -11 14 -38 35 -38 60 0 69 43 14 66 -28 12 -34
18 -25 27 9 9 17 8 32 -1 22 -14 35 -10 25 6 -9 15 -40 20 -65 11z"/>
<path d="M1992 404 c-41 -28 -21 -104 28 -104 49 0 69 76 28 104 -12 9 -25 16
-28 16 -3 0 -16 -7 -28 -16z m53 -44 c0 -31 -3 -35 -25 -35 -19 0 -26 6 -28
23 -5 36 5 54 30 50 19 -2 23 -9 23 -38z"/>
<path d="M2097 413 c-11 -10 -8 -153 3 -153 6 0 10 11 10 24 0 19 4 22 23 19
50 -10 76 58 37 97 -23 23 -36 25 -46 9 -5 -8 -8 -8 -13 0 -4 6 -10 8 -14 4z
m63 -27 c6 -8 10 -25 8 -38 -2 -17 -10 -23 -28 -23 -20 0 -26 6 -28 29 -5 40
25 59 48 32z"/>
<path d="M1360 354 c0 -34 4 -53 10 -49 6 3 10 28 10 56 0 27 -4 49 -10 49 -5
0 -10 -25 -10 -56z"/>
</g>
</svg>
